<svg width="364" height="45" viewBox="0 0 364 45" fill="none" xmlns="http://www.w3.org/2000/svg">
<path d="M18.392 34V26.224H17.096V17.776C17.096 16.432 16.776 15.424 16.136 14.752C15.496 14.08 14.472 13.744 13.064 13.744C12.36 13.744 11.432 13.76 10.28 13.792C9.128 13.824 7.944 13.872 6.728 13.936C5.512 14 4.408 14.064 3.416 14.128V7.648C4.152 7.584 5.016 7.52 6.008 7.456C7 7.392 8.024 7.344 9.08 7.312C10.136 7.28 11.128 7.264 12.056 7.264C14.744 7.264 17 7.648 18.824 8.416C20.68 9.184 22.088 10.352 23.048 11.92C24.008 13.456 24.488 15.44 24.488 17.872V34H18.392ZM9.992 34.672C8.104 34.672 6.44 34.336 5 33.664C3.592 32.992 2.488 32.032 1.688 30.784C0.888 29.504 0.488 27.984 0.488 26.224C0.488 24.304 0.984 22.736 1.976 21.52C2.968 20.272 4.36 19.36 6.152 18.784C7.944 18.176 10.008 17.872 12.344 17.872H17.96V22.144H12.296C10.952 22.144 9.912 22.48 9.176 23.152C8.472 23.792 8.12 24.672 8.12 25.792C8.12 26.848 8.472 27.712 9.176 28.384C9.912 29.024 10.952 29.344 12.296 29.344C13.16 29.344 13.928 29.2 14.6 28.912C15.304 28.592 15.88 28.064 16.328 27.328C16.776 26.592 17.032 25.568 17.096 24.256L18.92 26.176C18.76 28 18.312 29.536 17.576 30.784C16.872 32.032 15.88 32.992 14.6 33.664C13.352 34.336 11.816 34.672 9.992 34.672ZM31.004 34V7.696H37.1V18.976H36.668C36.668 16.288 37.004 14.048 37.676 12.256C38.38 10.464 39.436 9.12 40.844 8.224C42.252 7.328 43.964 6.88 45.98 6.88H46.316C49.388 6.88 51.724 7.888 53.324 9.904C54.956 11.888 55.772 14.912 55.772 18.976V34H48.092V18.544C48.092 17.136 47.676 15.984 46.844 15.088C46.012 14.192 44.892 13.744 43.484 13.744C42.044 13.744 40.876 14.208 39.98 15.136C39.116 16.032 38.684 17.216 38.684 18.688V34H31.004ZM71.1965 34.816C68.1565 34.816 65.8205 33.84 64.1885 31.888C62.5565 29.904 61.7405 26.928 61.7405 22.96V7.696H69.4205V23.344C69.4205 24.752 69.8205 25.872 70.6205 26.704C71.4205 27.536 72.4925 27.952 73.8365 27.952C75.2125 27.952 76.3325 27.52 77.1965 26.656C78.0605 25.792 78.4925 24.624 78.4925 23.152V7.696H86.1725V34H80.0765V22.912H80.6045C80.6045 25.568 80.2525 27.792 79.5485 29.584C78.8765 31.344 77.8685 32.656 76.5245 33.52C75.1805 34.384 73.5165 34.816 71.5325 34.816H71.1965ZM93.254 34V7.696H99.35V18.976H99.206C99.206 15.264 99.99 12.4 101.558 10.384C103.158 8.368 105.462 7.36 108.47 7.36H109.478V13.984H107.558C105.446 13.984 103.814 14.56 102.662 15.712C101.51 16.832 100.934 18.464 100.934 20.608V34H93.254ZM129.158 34V26.224H127.862V17.776C127.862 16.432 127.542 15.424 126.902 14.752C126.262 14.08 125.238 13.744 123.83 13.744C123.126 13.744 122.198 13.76 121.046 13.792C119.894 13.824 118.71 13.872 117.494 13.936C116.278 14 115.174 14.064 114.182 14.128V7.648C114.918 7.584 115.782 7.52 116.774 7.456C117.766 7.392 118.79 7.344 119.846 7.312C120.902 7.28 121.894 7.264 122.822 7.264C125.51 7.264 127.766 7.648 129.59 8.416C131.446 9.184 132.854 10.352 133.814 11.92C134.774 13.456 135.254 15.44 135.254 17.872V34H129.158ZM120.758 34.672C118.87 34.672 117.206 34.336 115.766 33.664C114.358 32.992 113.254 32.032 112.454 30.784C111.654 29.504 111.254 27.984 111.254 26.224C111.254 24.304 111.75 22.736 112.742 21.52C113.734 20.272 115.126 19.36 116.918 18.784C118.71 18.176 120.774 17.872 123.11 17.872H128.726V22.144H123.062C121.718 22.144 120.678 22.48 119.942 23.152C119.238 23.792 118.886 24.672 118.886 25.792C118.886 26.848 119.238 27.712 119.942 28.384C120.678 29.024 121.718 29.344 123.062 29.344C123.926 29.344 124.694 29.2 125.366 28.912C126.07 28.592 126.646 28.064 127.094 27.328C127.542 26.592 127.798 25.568 127.862 24.256L129.686 26.176C129.526 28 129.078 29.536 128.342 30.784C127.638 32.032 126.646 32.992 125.366 33.664C124.118 34.336 122.582 34.672 120.758 34.672ZM152.138 44.464C150.858 44.464 149.546 44.416 148.202 44.32C146.858 44.224 145.626 44.096 144.506 43.936V37.456C145.626 37.616 146.858 37.744 148.202 37.84C149.578 37.968 150.826 38.032 151.946 38.032C154.026 38.032 155.706 37.792 156.986 37.312C158.298 36.832 159.258 36.096 159.866 35.104C160.474 34.144 160.778 32.896 160.778 31.36V26.128L162.17 23.056C162.106 25.392 161.642 27.392 160.778 29.056C159.946 30.72 158.778 32 157.274 32.896C155.77 33.76 153.978 34.192 151.898 34.192C150.106 34.192 148.474 33.872 147.002 33.232C145.562 32.56 144.33 31.632 143.306 30.448C142.282 29.264 141.498 27.888 140.954 26.32C140.41 24.72 140.138 22.992 140.138 21.136V20.032C140.138 18.176 140.426 16.448 141.002 14.848C141.578 13.248 142.41 11.856 143.498 10.672C144.586 9.488 145.882 8.576 147.386 7.936C148.89 7.264 150.554 6.928 152.378 6.928C154.49 6.928 156.314 7.392 157.85 8.32C159.418 9.248 160.65 10.608 161.546 12.4C162.442 14.192 162.922 16.352 162.986 18.88L161.93 19.168V7.696H168.026V30.88C168.026 34.112 167.45 36.72 166.298 38.704C165.146 40.688 163.386 42.144 161.018 43.072C158.682 44 155.722 44.464 152.138 44.464ZM154.298 27.712C155.482 27.712 156.554 27.456 157.514 26.944C158.474 26.4 159.226 25.632 159.77 24.64C160.346 23.648 160.634 22.448 160.634 21.04V19.648C160.634 18.272 160.33 17.12 159.722 16.192C159.146 15.232 158.378 14.512 157.418 14.032C156.458 13.52 155.434 13.264 154.346 13.264C153.066 13.264 151.93 13.568 150.938 14.176C149.946 14.784 149.178 15.632 148.634 16.72C148.09 17.808 147.818 19.088 147.818 20.56C147.818 22.064 148.09 23.36 148.634 24.448C149.21 25.504 149.978 26.32 150.938 26.896C151.93 27.44 153.05 27.712 154.298 27.712ZM194.91 34.768C191.55 34.768 188.942 34.048 187.086 32.608C185.262 31.168 184.318 29.2 184.254 26.704H188.574C188.638 27.696 189.134 28.64 190.062 29.536C191.022 30.4 192.638 30.832 194.91 30.832C196.958 30.832 198.526 30.432 199.614 29.632C200.702 28.8 201.246 27.792 201.246 26.608C201.246 25.552 200.846 24.736 200.046 24.16C199.246 23.552 197.95 23.152 196.158 22.96L193.374 22.672C190.942 22.416 188.958 21.696 187.422 20.512C185.886 19.296 185.118 17.6 185.118 15.424C185.118 13.792 185.534 12.4 186.366 11.248C187.198 10.064 188.35 9.168 189.822 8.56C191.294 7.92 192.99 7.6 194.91 7.6C197.79 7.6 200.126 8.24 201.918 9.52C203.71 10.8 204.638 12.704 204.702 15.232H200.382C200.35 14.208 199.87 13.344 198.942 12.64C198.046 11.904 196.702 11.536 194.91 11.536C193.118 11.536 191.758 11.904 190.83 12.64C189.902 13.376 189.438 14.304 189.438 15.424C189.438 16.384 189.758 17.152 190.398 17.728C191.07 18.304 192.158 18.672 193.662 18.832L196.446 19.12C199.198 19.408 201.406 20.176 203.07 21.424C204.734 22.64 205.566 24.368 205.566 26.608C205.566 28.208 205.102 29.632 204.174 30.88C203.278 32.096 202.03 33.056 200.43 33.76C198.83 34.432 196.99 34.768 194.91 34.768ZM227.748 34V26.32H226.98V17.44C226.98 15.68 226.516 14.352 225.588 13.456C224.692 12.56 223.364 12.112 221.604 12.112C220.612 12.112 219.588 12.128 218.532 12.16C217.476 12.192 216.468 12.224 215.508 12.256C214.548 12.288 213.716 12.336 213.012 12.4V8.368C213.716 8.304 214.452 8.256 215.22 8.224C216.02 8.16 216.836 8.128 217.668 8.128C218.5 8.096 219.3 8.08 220.068 8.08C222.692 8.08 224.836 8.4 226.5 9.04C228.164 9.648 229.396 10.656 230.196 12.064C230.996 13.472 231.396 15.376 231.396 17.776V34H227.748ZM219.348 34.672C217.428 34.672 215.764 34.352 214.356 33.712C212.98 33.04 211.908 32.08 211.14 30.832C210.404 29.584 210.036 28.08 210.036 26.32C210.036 24.496 210.436 22.976 211.236 21.76C212.068 20.544 213.268 19.632 214.836 19.024C216.404 18.384 218.292 18.064 220.5 18.064H227.46V21.52H220.308C218.452 21.52 217.028 21.968 216.036 22.864C215.044 23.76 214.548 24.912 214.548 26.32C214.548 27.728 215.044 28.864 216.036 29.728C217.028 30.592 218.452 31.024 220.308 31.024C221.396 31.024 222.436 30.832 223.428 30.448C224.42 30.032 225.236 29.36 225.876 28.432C226.548 27.472 226.916 26.16 226.98 24.496L228.228 26.32C228.068 28.144 227.62 29.68 226.884 30.928C226.18 32.144 225.188 33.072 223.908 33.712C222.66 34.352 221.14 34.672 219.348 34.672ZM247.248 34L252.432 9.232H258.672L264.72 34H260.784L254.736 9.328H256.272L251.04 34H247.248ZM244.896 34V30.352H250.224V34H244.896ZM243.84 34L236.592 8.368H241.008L248.064 34H243.84ZM261.744 34V30.352H267.072V34H261.744ZM263.904 34L270.048 8.368H274.224L267.936 34H263.904ZM295.764 34V26.32H294.996V17.44C294.996 15.68 294.532 14.352 293.604 13.456C292.708 12.56 291.38 12.112 289.62 12.112C288.628 12.112 287.604 12.128 286.548 12.16C285.492 12.192 284.484 12.224 283.524 12.256C282.564 12.288 281.732 12.336 281.028 12.4V8.368C281.732 8.304 282.468 8.256 283.236 8.224C284.036 8.16 284.852 8.128 285.684 8.128C286.516 8.096 287.316 8.08 288.084 8.08C290.708 8.08 292.852 8.4 294.516 9.04C296.18 9.648 297.412 10.656 298.212 12.064C299.012 13.472 299.412 15.376 299.412 17.776V34H295.764ZM287.364 34.672C285.444 34.672 283.78 34.352 282.372 33.712C280.996 33.04 279.924 32.08 279.156 30.832C278.42 29.584 278.052 28.08 278.052 26.32C278.052 24.496 278.452 22.976 279.252 21.76C280.084 20.544 281.284 19.632 282.852 19.024C284.42 18.384 286.308 18.064 288.516 18.064H295.476V21.52H288.324C286.468 21.52 285.044 21.968 284.052 22.864C283.06 23.76 282.564 24.912 282.564 26.32C282.564 27.728 283.06 28.864 284.052 29.728C285.044 30.592 286.468 31.024 288.324 31.024C289.412 31.024 290.452 30.832 291.444 30.448C292.436 30.032 293.252 29.36 293.892 28.432C294.564 27.472 294.932 26.16 294.996 24.496L296.244 26.32C296.084 28.144 295.636 29.68 294.9 30.928C294.196 32.144 293.204 33.072 291.924 33.712C290.676 34.352 289.156 34.672 287.364 34.672ZM307.869 34V8.368H311.517V19.36H310.941C310.941 16.832 311.277 14.704 311.949 12.976C312.653 11.216 313.709 9.888 315.117 8.992C316.525 8.064 318.301 7.6 320.445 7.6H320.637C323.869 7.6 326.253 8.608 327.789 10.624C329.357 12.64 330.141 15.552 330.141 19.36V34H325.533V18.4C325.533 16.416 324.973 14.832 323.853 13.648C322.733 12.432 321.197 11.824 319.245 11.824C317.229 11.824 315.597 12.448 314.349 13.696C313.101 14.944 312.477 16.608 312.477 18.688V34H307.869ZM348.556 34.288C346.636 34.288 344.972 34.016 343.564 33.472C342.188 32.928 341.116 32 340.348 30.688C339.612 29.344 339.244 27.536 339.244 25.264V0.591998H343.66V25.84C343.66 27.216 344.028 28.288 344.764 29.056C345.532 29.792 346.604 30.16 347.98 30.16H352.492V34.288H348.556ZM334.828 11.824V8.368H352.492V11.824H334.828Z" fill="white"/>
<path d="M358.098 34V28.144H363.666V34H358.098Z" fill="#F13024"/>
</svg>
